<svg id="svg" xmlns="http://www.w3.org/2000/svg" xmlns:xlink="http://www.w3.org/1999/xlink" width="400" height="400" viewBox="0, 0, 400,400"><g id="svgg"><path id="path0" d="M273.706 124.096 L 297.792 148.192 264.823 182.885 C 246.690 201.966,230.356 219.111,228.526 220.984 L 225.199 224.390 183.289 182.781 C 160.239 159.897,141.274 141.313,141.145 141.485 C 124.588 163.555,25.025 299.504,25.252 299.732 C 25.436 299.915,51.688 277.686,83.591 250.335 L 141.596 200.606 144.180 203.233 C 145.601 204.677,164.199 224.141,185.508 246.484 C 206.818 268.828,224.678 287.109,225.198 287.109 C 225.718 287.109,248.972 262.560,276.873 232.556 L 327.603 178.003 351.301 201.692 L 375.000 225.381 375.000 162.691 L 375.000 100.000 312.309 100.000 L 249.619 100.000 273.706 124.096 " stroke="none" fill="#ffffff" fill-rule="evenodd"></path></g></svg>
